<svg width="183" height="53" viewBox="0 0 183 53" fill="none" xmlns="http://www.w3.org/2000/svg">
<path d="M0.86499 42.1799V44.4617C0.86499 46.3481 8.41847 47.8819 17.7286 47.8819C27.0387 47.8819 34.5921 46.3481 34.5921 44.4617V42.1799C30.9647 43.7349 24.3335 44.4617 17.7286 44.4617C11.1237 44.4617 4.49241 43.7349 0.86499 42.1799ZM28.9709 27.3611C38.281 27.3611 45.8345 25.8273 45.8345 23.9409C45.8345 22.0545 38.281 20.5208 28.9709 20.5208C19.6608 20.5208 12.1074 22.0545 12.1074 23.9409C12.1074 25.8273 19.6608 27.3611 28.9709 27.3611ZM0.86499 36.574V39.3315C0.86499 41.2179 8.41847 42.7517 17.7286 42.7517C27.0387 42.7517 34.5921 41.2179 34.5921 39.3315V36.574C30.9647 38.391 24.3247 39.3315 17.7286 39.3315C11.1324 39.3315 4.49241 38.391 0.86499 36.574ZM37.4027 37.1619C42.4355 36.5687 45.8345 35.4678 45.8345 34.2013V31.9194C43.7968 32.7959 40.8018 33.3944 37.4027 33.7631V37.1619ZM17.7286 29.0711C8.41847 29.0711 0.86499 30.9843 0.86499 33.3463C0.86499 35.7083 8.41847 37.6215 17.7286 37.6215C27.0387 37.6215 34.5921 35.7083 34.5921 33.3463C34.5921 30.9843 27.0387 29.0711 17.7286 29.0711ZM36.9899 32.0798C42.2598 31.5026 45.8345 30.3697 45.8345 29.0711V26.7892C42.7165 28.1306 37.3588 28.852 31.7201 29.023C34.3111 29.7872 36.217 30.8132 36.9899 32.0798Z" fill="white"/>
<path d="M44.671 0.805946C44.4524 0.446305 43.8277 0.431919 43.5662 0.771421C42.3559 2.32219 40.1892 3.28891 37.7141 3.28891H34.5909C30.4527 3.28891 27.0953 5.76324 27.0953 8.813C27.0953 9.0144 27.1265 9.20717 27.1538 9.40281C29.6446 8.08796 33.2401 6.97164 38.3387 6.97164C38.6823 6.97164 38.9634 7.17879 38.9634 7.43198C38.9634 7.68517 38.6823 7.89232 38.3387 7.89232C28.5241 7.89232 24.3625 12.326 23.4412 13.9918C23.1835 14.4608 23.488 14.996 24.1244 15.1887C24.7646 15.3844 25.4908 15.1571 25.7562 14.691C25.8148 14.5874 26.5722 13.3128 28.5632 12.0843C29.8281 13.3474 32.2329 14.5529 35.3912 14.3054C41.5205 13.9775 45.8344 9.92645 45.8344 4.96628C45.8344 3.52196 45.4127 2.02585 44.671 0.805946Z" fill="white"/>
<path d="M0.459805 0.707852C-0.131286 0.84087 -0.15493 1.22092 0.403061 1.38007C2.95185 2.11642 4.5407 3.43472 4.5407 4.94067V6.84093C4.5407 9.35876 8.60741 11.4015 13.6199 11.4015C13.9509 11.4015 14.2677 11.3825 14.5893 11.3659C12.4282 9.85045 10.5935 7.66279 10.5935 4.56062C10.5935 4.35159 10.934 4.18057 11.3501 4.18057C11.7662 4.18057 12.1067 4.35159 12.1067 4.56062C12.1067 10.5322 19.3937 13.0643 22.1316 13.6248C22.9024 13.7816 23.7819 13.5963 24.0987 13.2092C24.4203 12.8196 24.0467 12.3778 23.2807 12.2163C23.1104 12.1806 21.0156 11.7198 18.9964 10.5084C21.0724 9.73881 23.0537 8.27562 22.647 6.35398C22.1079 2.62473 15.4499 7.62939e-06 7.29755 7.62939e-06C4.92373 7.62939e-06 2.46479 0.256541 0.459805 0.707852Z" fill="white"/>
<path d="M79.9308 9.87172C80.8908 9.87172 81.7388 9.95172 82.4748 10.1117C83.2268 10.2717 83.8908 10.4877 84.4668 10.7597L83.7228 13.1597C83.1788 12.8877 82.6028 12.6957 81.9948 12.5837C81.4028 12.4557 80.8268 12.3917 80.2668 12.3917C79.6268 12.3917 79.0268 12.4957 78.4668 12.7037C77.9068 12.9117 77.4108 13.2397 76.9788 13.6877C76.5628 14.1197 76.2348 14.6717 75.9948 15.3437C75.7548 16.0157 75.6348 16.8157 75.6348 17.7437C75.6348 19.4397 76.0028 20.7437 76.7388 21.6557C77.4908 22.5517 78.5628 22.9997 79.9548 22.9997C80.2908 22.9997 80.5948 22.9837 80.8668 22.9517C81.1388 22.9197 81.3468 22.8717 81.4908 22.8077V19.5197H79.1148V16.8317H84.9948V24.6077C84.3708 24.8797 83.6348 25.1037 82.7868 25.2797C81.9388 25.4557 80.9868 25.5437 79.9308 25.5437C78.7788 25.5437 77.7068 25.3757 76.7148 25.0397C75.7388 24.7037 74.8828 24.2077 74.1468 23.5517C73.4108 22.8797 72.8348 22.0637 72.4188 21.1037C72.0028 20.1277 71.7948 19.0077 71.7948 17.7437C71.7948 16.4797 72.0028 15.3597 72.4188 14.3837C72.8348 13.3917 73.4108 12.5677 74.1468 11.9117C74.8828 11.2397 75.7388 10.7357 76.7148 10.3997C77.7068 10.0477 78.7788 9.87172 79.9308 9.87172ZM98.9326 19.4477C98.9326 20.3917 98.7726 21.2397 98.4526 21.9917C98.1486 22.7437 97.7246 23.3837 97.1806 23.9117C96.6366 24.4397 95.9966 24.8477 95.2606 25.1357C94.5246 25.4077 93.7326 25.5437 92.8846 25.5437C92.0366 25.5437 91.2446 25.4157 90.5086 25.1597C89.7886 24.8877 89.1646 24.5037 88.6366 24.0077C88.1086 23.5117 87.6926 22.9037 87.3886 22.1837C87.0846 21.4477 86.9326 20.6157 86.9326 19.6877C86.9326 18.7117 87.0846 17.8397 87.3886 17.0717C87.7086 16.3037 88.1406 15.6557 88.6846 15.1277C89.2286 14.5997 89.8686 14.1997 90.6046 13.9277C91.3406 13.6397 92.1326 13.4957 92.9806 13.4957C93.8286 13.4957 94.6126 13.6237 95.3326 13.8797C96.0686 14.1357 96.7006 14.5197 97.2286 15.0317C97.7566 15.5277 98.1726 16.1437 98.4766 16.8797C98.7806 17.6157 98.9326 18.4717 98.9326 19.4477ZM95.2846 19.5677C95.2846 18.9437 95.2206 18.4157 95.0926 17.9837C94.9646 17.5357 94.7886 17.1757 94.5646 16.9037C94.3406 16.6157 94.0846 16.4077 93.7966 16.2797C93.5086 16.1517 93.2126 16.0877 92.9086 16.0877C92.6046 16.0877 92.3086 16.1437 92.0206 16.2557C91.7486 16.3677 91.5006 16.5597 91.2766 16.8317C91.0686 17.1037 90.9006 17.4637 90.7726 17.9117C90.6446 18.3437 90.5806 18.8957 90.5806 19.5677C90.5806 20.7357 90.8206 21.5917 91.3006 22.1357C91.7806 22.6797 92.3326 22.9517 92.9566 22.9517C93.2606 22.9517 93.5486 22.8957 93.8206 22.7837C94.1086 22.6557 94.3566 22.4637 94.5646 22.2077C94.7886 21.9357 94.9646 21.5837 95.0926 21.1517C95.2206 20.7197 95.2846 20.1917 95.2846 19.5677ZM112.009 9.87172C113.065 9.87172 113.977 9.98372 114.745 10.2077C115.513 10.4157 116.177 10.6717 116.737 10.9757L115.921 13.6397C115.297 13.3197 114.665 13.0717 114.025 12.8957C113.401 12.7037 112.801 12.6077 112.225 12.6077C111.489 12.6077 110.929 12.7437 110.545 13.0157C110.161 13.2877 109.969 13.6477 109.969 14.0957C109.969 14.6077 110.153 14.9837 110.521 15.2237C110.889 15.4477 111.457 15.6877 112.225 15.9437L113.641 16.3997C114.201 16.5917 114.721 16.8317 115.201 17.1197C115.681 17.3917 116.089 17.7117 116.425 18.0797C116.777 18.4477 117.049 18.8637 117.241 19.3277C117.433 19.7917 117.529 20.2957 117.529 20.8397C117.529 21.4797 117.409 22.0877 117.169 22.6637C116.929 23.2237 116.561 23.7197 116.065 24.1517C115.585 24.5837 114.969 24.9277 114.217 25.1837C113.481 25.4237 112.609 25.5437 111.601 25.5437C110.657 25.5437 109.753 25.4477 108.889 25.2557C108.041 25.0477 107.257 24.7597 106.537 24.3917L107.353 21.7277C108.041 22.0637 108.713 22.3277 109.369 22.5197C110.025 22.7117 110.713 22.8077 111.433 22.8077C112.281 22.8077 112.889 22.6717 113.257 22.3997C113.641 22.1117 113.833 21.7277 113.833 21.2477C113.833 21.0877 113.801 20.9277 113.737 20.7677C113.673 20.6077 113.545 20.4477 113.353 20.2877C113.177 20.1277 112.921 19.9757 112.585 19.8317C112.265 19.6717 111.849 19.5117 111.337 19.3517L110.161 18.9437C109.601 18.7357 109.081 18.5037 108.601 18.2477C108.121 17.9917 107.705 17.6877 107.353 17.3357C107.017 16.9837 106.753 16.5757 106.561 16.1117C106.369 15.6477 106.273 15.0957 106.273 14.4557C106.273 13.7997 106.393 13.1917 106.633 12.6317C106.889 12.0717 107.257 11.5917 107.737 11.1917C108.233 10.7757 108.833 10.4557 109.537 10.2317C110.257 9.99172 111.081 9.87172 112.009 9.87172ZM127.15 13.7597H130.702V25.2797H128.086L127.726 24.0317H127.63C127.47 24.1917 127.278 24.3597 127.054 24.5357C126.83 24.7117 126.558 24.8797 126.238 25.0397C125.934 25.1837 125.582 25.3037 125.182 25.3997C124.782 25.4957 124.326 25.5437 123.814 25.5437C122.566 25.5437 121.59 25.1997 120.886 24.5117C120.182 23.8237 119.83 22.8077 119.83 21.4637V13.7597H123.382V21.1757C123.382 21.7677 123.526 22.2077 123.814 22.4957C124.118 22.7677 124.502 22.9037 124.966 22.9037C125.526 22.9037 125.982 22.7917 126.334 22.5677C126.702 22.3277 126.974 22.0797 127.15 21.8237V13.7597ZM140.838 8.11972H144.39V25.2797H141.942L141.582 24.0317H141.462C141.238 24.3837 140.846 24.7277 140.286 25.0637C139.742 25.3837 139.022 25.5437 138.126 25.5437C137.374 25.5437 136.678 25.4077 136.038 25.1357C135.398 24.8477 134.846 24.4477 134.382 23.9357C133.918 23.4077 133.55 22.7757 133.278 22.0397C133.022 21.2877 132.894 20.4477 132.894 19.5197C132.894 18.6077 133.014 17.7837 133.254 17.0477C133.494 16.2957 133.838 15.6637 134.286 15.1517C134.75 14.6237 135.318 14.2157 135.99 13.9277C136.662 13.6397 137.422 13.4957 138.27 13.4957C138.798 13.4957 139.294 13.5757 139.758 13.7357C140.238 13.8797 140.598 14.0637 140.838 14.2877V8.11972ZM140.838 16.8797C140.694 16.6877 140.47 16.5037 140.166 16.3277C139.862 16.1517 139.526 16.0637 139.158 16.0637C138.79 16.0637 138.446 16.1277 138.126 16.2557C137.806 16.3677 137.518 16.5597 137.262 16.8317C137.022 17.1037 136.83 17.4557 136.686 17.8877C136.542 18.3037 136.47 18.8237 136.47 19.4477C136.47 20.6477 136.702 21.5357 137.166 22.1117C137.646 22.6717 138.262 22.9517 139.014 22.9517C139.478 22.9517 139.862 22.8317 140.166 22.5917C140.486 22.3517 140.71 22.0957 140.838 21.8237V16.8797ZM147.444 14.7677C148.1 14.3837 148.836 14.0797 149.652 13.8557C150.484 13.6157 151.332 13.4957 152.196 13.4957C153.62 13.4957 154.764 13.8397 155.628 14.5277C156.492 15.2157 156.924 16.3117 156.924 17.8157V25.2797H154.212L153.9 24.1277H153.804C153.484 24.5437 153.036 24.8877 152.46 25.1597C151.9 25.4157 151.236 25.5437 150.468 25.5437C149.812 25.5437 149.236 25.4477 148.74 25.2557C148.26 25.0637 147.86 24.8077 147.54 24.4877C147.22 24.1677 146.972 23.7917 146.796 23.3597C146.636 22.9117 146.556 22.4397 146.556 21.9437C146.556 21.2717 146.7 20.6957 146.988 20.2157C147.292 19.7357 147.692 19.3437 148.188 19.0397C148.7 18.7357 149.292 18.5117 149.964 18.3677C150.652 18.2237 151.38 18.1517 152.148 18.1517H153.348V17.5277C153.348 17.0957 153.196 16.7677 152.892 16.5437C152.588 16.3037 152.156 16.1837 151.596 16.1837C151.116 16.1837 150.644 16.2557 150.18 16.3997C149.716 16.5437 149.204 16.7757 148.644 17.0957L147.444 14.7677ZM153.372 20.3117L152.58 20.3357C152.132 20.3517 151.756 20.3997 151.452 20.4797C151.148 20.5597 150.9 20.6637 150.708 20.7917C150.532 20.9037 150.404 21.0477 150.324 21.2237C150.244 21.3837 150.204 21.5517 150.204 21.7277C150.204 22.2237 150.348 22.5677 150.636 22.7597C150.94 22.9357 151.284 23.0237 151.668 23.0237C152.052 23.0237 152.396 22.9117 152.7 22.6877C153.02 22.4637 153.244 22.2157 153.372 21.9437V20.3117ZM64.6003 39.2917C65.2163 39.2917 65.7483 39.3571 66.1963 39.4877C66.6443 39.6091 67.0317 39.7584 67.3583 39.9357L66.8823 41.4897C66.5183 41.3031 66.1497 41.1584 65.7763 41.0557C65.4123 40.9437 65.0623 40.8877 64.7263 40.8877C64.297 40.8877 63.9703 40.9671 63.7463 41.1257C63.5223 41.2844 63.4103 41.4944 63.4103 41.7557C63.4103 42.0544 63.5177 42.2737 63.7323 42.4137C63.947 42.5444 64.2783 42.6844 64.7263 42.8337L65.5523 43.0997C65.879 43.2117 66.1823 43.3517 66.4623 43.5197C66.7423 43.6784 66.9803 43.8651 67.1763 44.0797C67.3817 44.2944 67.5403 44.5371 67.6523 44.8077C67.7643 45.0784 67.8203 45.3724 67.8203 45.6897C67.8203 46.0631 67.7503 46.4177 67.6103 46.7537C67.4703 47.0804 67.2557 47.3697 66.9663 47.6217C66.6863 47.8737 66.327 48.0744 65.8883 48.2237C65.459 48.3637 64.9503 48.4337 64.3623 48.4337C63.8117 48.4337 63.2843 48.3777 62.7803 48.2657C62.2857 48.1444 61.8283 47.9764 61.4083 47.7617L61.8843 46.2077C62.2857 46.4037 62.6777 46.5577 63.0603 46.6697C63.443 46.7817 63.8443 46.8377 64.2643 46.8377C64.759 46.8377 65.1137 46.7584 65.3283 46.5997C65.5523 46.4317 65.6643 46.2077 65.6643 45.9277C65.6643 45.8344 65.6457 45.7411 65.6083 45.6477C65.571 45.5544 65.4963 45.4611 65.3843 45.3677C65.2817 45.2744 65.1323 45.1857 64.9363 45.1017C64.7497 45.0084 64.507 44.9151 64.2083 44.8217L63.5223 44.5837C63.1957 44.4624 62.8923 44.3271 62.6123 44.1777C62.3323 44.0284 62.0897 43.8511 61.8843 43.6457C61.6883 43.4404 61.5343 43.2024 61.4223 42.9317C61.3103 42.6611 61.2543 42.3391 61.2543 41.9657C61.2543 41.5831 61.3243 41.2284 61.4643 40.9017C61.6137 40.5751 61.8283 40.2951 62.1083 40.0617C62.3977 39.8191 62.7477 39.6324 63.1583 39.5017C63.5783 39.3617 64.059 39.2917 64.6003 39.2917ZM69.2886 42.1477C69.6713 41.9237 70.1006 41.7464 70.5766 41.6157C71.0619 41.4757 71.5566 41.4057 72.0606 41.4057C72.8913 41.4057 73.5586 41.6064 74.0626 42.0077C74.5666 42.4091 74.8186 43.0484 74.8186 43.9257V48.2797H73.2366L73.0546 47.6077H72.9986C72.8119 47.8504 72.5506 48.0511 72.2146 48.2097C71.8879 48.3591 71.5006 48.4337 71.0526 48.4337C70.6699 48.4337 70.3339 48.3777 70.0446 48.2657C69.7646 48.1537 69.5313 48.0044 69.3446 47.8177C69.1579 47.6311 69.0133 47.4117 68.9106 47.1597C68.8173 46.8984 68.7706 46.6231 68.7706 46.3337C68.7706 45.9417 68.8546 45.6057 69.0226 45.3257C69.1999 45.0457 69.4333 44.8171 69.7226 44.6397C70.0213 44.4624 70.3666 44.3317 70.7586 44.2477C71.1599 44.1637 71.5846 44.1217 72.0326 44.1217H72.7326V43.7577C72.7326 43.5057 72.6439 43.3144 72.4666 43.1837C72.2893 43.0437 72.0373 42.9737 71.7106 42.9737C71.4306 42.9737 71.1553 43.0157 70.8846 43.0997C70.6139 43.1837 70.3153 43.3191 69.9886 43.5057L69.2886 42.1477ZM72.7466 45.3817L72.2846 45.3957C72.0233 45.4051 71.8039 45.4331 71.6266 45.4797C71.4493 45.5264 71.3046 45.5871 71.1926 45.6617C71.0899 45.7271 71.0153 45.8111 70.9686 45.9137C70.9219 46.0071 70.8986 46.1051 70.8986 46.2077C70.8986 46.4971 70.9826 46.6977 71.1506 46.8097C71.3279 46.9124 71.5286 46.9637 71.7526 46.9637C71.9766 46.9637 72.1773 46.8984 72.3546 46.7677C72.5413 46.6371 72.6719 46.4924 72.7466 46.3337V45.3817ZM80.4303 41.5597H82.6283L80.2763 48.2797H77.8123L75.5723 41.5597H77.7843L78.5963 44.4997L79.0583 46.8377H79.1143L79.5763 44.4997L80.4303 41.5597ZM89.4844 45.5217H85.1444V45.5777C85.1444 46.0444 85.3264 46.3851 85.6904 46.5997C86.0544 46.8144 86.5117 46.9217 87.0624 46.9217C87.445 46.9217 87.781 46.8844 88.0704 46.8097C88.3597 46.7351 88.6024 46.6464 88.7984 46.5437L89.1764 47.9717C88.9244 48.0931 88.6024 48.2004 88.2104 48.2937C87.8277 48.3871 87.3564 48.4337 86.7964 48.4337C86.2924 48.4337 85.8117 48.3684 85.3544 48.2377C84.9064 48.0977 84.5097 47.8877 84.1644 47.6077C83.8284 47.3277 83.5577 46.9731 83.3524 46.5437C83.1564 46.1144 83.0584 45.6011 83.0584 45.0037C83.0584 44.4717 83.1377 43.9864 83.2964 43.5477C83.4644 43.0997 83.6977 42.7171 83.9964 42.3997C84.295 42.0824 84.6497 41.8397 85.0604 41.6717C85.4804 41.4944 85.9424 41.4057 86.4464 41.4057C87.3704 41.4057 88.1077 41.6857 88.6584 42.2457C89.209 42.8057 89.4844 43.6037 89.4844 44.6397V45.5217ZM87.3704 44.1077C87.3704 43.9491 87.3517 43.7951 87.3144 43.6457C87.277 43.4964 87.2164 43.3657 87.1324 43.2537C87.0577 43.1324 86.955 43.0391 86.8244 42.9737C86.703 42.8991 86.5537 42.8617 86.3764 42.8617C86.0497 42.8617 85.779 42.9784 85.5644 43.2117C85.3497 43.4357 85.2237 43.7437 85.1864 44.1357L87.3704 44.1077ZM93.3041 41.5597H95.5721L96.6781 44.5557L97.1261 46.1937H97.1821L97.6021 44.5277L98.5681 41.5597H100.682L98.2601 48.4057C98.1294 48.7884 97.9754 49.1617 97.7981 49.5257C97.6207 49.8897 97.4014 50.2304 97.1401 50.5477C96.8881 50.8651 96.5801 51.1544 96.2161 51.4157C95.8521 51.6771 95.4134 51.8917 94.9001 52.0597L94.0461 50.4497C94.5967 50.2537 95.0494 49.9737 95.4041 49.6097C95.7681 49.2457 96.0107 48.8257 96.1321 48.3497L96.1601 48.2377L93.3041 41.5597ZM108.229 44.8777C108.229 45.4284 108.135 45.9231 107.949 46.3617C107.771 46.8004 107.524 47.1737 107.207 47.4817C106.889 47.7897 106.516 48.0277 106.087 48.1957C105.657 48.3544 105.195 48.4337 104.701 48.4337C104.206 48.4337 103.744 48.3591 103.315 48.2097C102.895 48.0511 102.531 47.8271 102.223 47.5377C101.915 47.2484 101.672 46.8937 101.495 46.4737C101.317 46.0444 101.229 45.5591 101.229 45.0177C101.229 44.4484 101.317 43.9397 101.495 43.4917C101.681 43.0437 101.933 42.6657 102.251 42.3577C102.568 42.0497 102.941 41.8164 103.371 41.6577C103.8 41.4897 104.262 41.4057 104.757 41.4057C105.251 41.4057 105.709 41.4804 106.129 41.6297C106.558 41.7791 106.927 42.0031 107.235 42.3017C107.543 42.5911 107.785 42.9504 107.963 43.3797C108.14 43.8091 108.229 44.3084 108.229 44.8777ZM106.101 44.9477C106.101 44.5837 106.063 44.2757 105.989 44.0237C105.914 43.7624 105.811 43.5524 105.681 43.3937C105.55 43.2257 105.401 43.1044 105.233 43.0297C105.065 42.9551 104.892 42.9177 104.715 42.9177C104.537 42.9177 104.365 42.9504 104.197 43.0157C104.038 43.0811 103.893 43.1931 103.763 43.3517C103.641 43.5104 103.543 43.7204 103.469 43.9817C103.394 44.2337 103.357 44.5557 103.357 44.9477C103.357 45.6291 103.497 46.1284 103.777 46.4457C104.057 46.7631 104.379 46.9217 104.743 46.9217C104.92 46.9217 105.088 46.8891 105.247 46.8237C105.415 46.7491 105.559 46.6371 105.681 46.4877C105.811 46.3291 105.914 46.1237 105.989 45.8717C106.063 45.6197 106.101 45.3117 106.101 44.9477ZM113.778 41.5597H115.85V48.2797H114.324L114.114 47.5517H114.058C113.965 47.6451 113.853 47.7431 113.722 47.8457C113.592 47.9484 113.433 48.0464 113.246 48.1397C113.069 48.2237 112.864 48.2937 112.63 48.3497C112.397 48.4057 112.131 48.4337 111.832 48.4337C111.104 48.4337 110.535 48.2331 110.124 47.8317C109.714 47.4304 109.508 46.8377 109.508 46.0537V41.5597H111.58V45.8857C111.58 46.2311 111.664 46.4877 111.832 46.6557C112.01 46.8144 112.234 46.8937 112.504 46.8937C112.831 46.8937 113.097 46.8284 113.302 46.6977C113.517 46.5577 113.676 46.4131 113.778 46.2637V41.5597ZM117.479 48.2797V41.5597H119.103L119.313 42.7357C119.397 42.5677 119.5 42.4044 119.621 42.2457C119.742 42.0777 119.887 41.9331 120.055 41.8117C120.223 41.6904 120.414 41.5924 120.629 41.5177C120.853 41.4431 121.1 41.4057 121.371 41.4057C121.576 41.4057 121.763 41.4337 121.931 41.4897C122.108 41.5364 122.248 41.5924 122.351 41.6577L122.015 43.2677C121.912 43.2117 121.782 43.1604 121.623 43.1137C121.464 43.0671 121.268 43.0437 121.035 43.0437C120.606 43.0437 120.246 43.1837 119.957 43.4637C119.677 43.7437 119.537 44.2291 119.537 44.9197V48.2797H117.479ZM128.356 48.2797H126.284V41.5597H127.894L128.132 42.3997C128.43 42.0917 128.757 41.8491 129.112 41.6717C129.466 41.4944 129.863 41.4057 130.302 41.4057C131.263 41.4057 131.921 41.7464 132.276 42.4277C132.574 42.1197 132.91 41.8724 133.284 41.6857C133.666 41.4991 134.072 41.4057 134.502 41.4057C135.22 41.4057 135.776 41.6017 136.168 41.9937C136.56 42.3764 136.756 42.9411 136.756 43.6877V48.2797H134.684V43.8977C134.684 43.6177 134.609 43.3937 134.46 43.2257C134.31 43.0577 134.11 42.9737 133.858 42.9737C133.634 42.9737 133.4 43.0297 133.158 43.1417C132.915 43.2537 132.714 43.4171 132.556 43.6317V48.2797H130.484V43.8977C130.484 43.6177 130.409 43.3937 130.26 43.2257C130.11 43.0577 129.91 42.9737 129.658 42.9737C129.434 42.9737 129.2 43.0391 128.958 43.1697C128.715 43.3004 128.514 43.4731 128.356 43.6877V48.2797ZM145.033 44.8777C145.033 45.4284 144.94 45.9231 144.753 46.3617C144.576 46.8004 144.329 47.1737 144.011 47.4817C143.694 47.7897 143.321 48.0277 142.891 48.1957C142.462 48.3544 142 48.4337 141.505 48.4337C141.011 48.4337 140.549 48.3591 140.119 48.2097C139.699 48.0511 139.335 47.8271 139.027 47.5377C138.719 47.2484 138.477 46.8937 138.299 46.4737C138.122 46.0444 138.033 45.5591 138.033 45.0177C138.033 44.4484 138.122 43.9397 138.299 43.4917C138.486 43.0437 138.738 42.6657 139.055 42.3577C139.373 42.0497 139.746 41.8164 140.175 41.6577C140.605 41.4897 141.067 41.4057 141.561 41.4057C142.056 41.4057 142.513 41.4804 142.933 41.6297C143.363 41.7791 143.731 42.0031 144.039 42.3017C144.347 42.5911 144.59 42.9504 144.767 43.3797C144.945 43.8091 145.033 44.3084 145.033 44.8777ZM142.905 44.9477C142.905 44.5837 142.868 44.2757 142.793 44.0237C142.719 43.7624 142.616 43.5524 142.485 43.3937C142.355 43.2257 142.205 43.1044 142.037 43.0297C141.869 42.9551 141.697 42.9177 141.519 42.9177C141.342 42.9177 141.169 42.9504 141.001 43.0157C140.843 43.0811 140.698 43.1931 140.567 43.3517C140.446 43.5104 140.348 43.7204 140.273 43.9817C140.199 44.2337 140.161 44.5557 140.161 44.9477C140.161 45.6291 140.301 46.1284 140.581 46.4457C140.861 46.7631 141.183 46.9217 141.547 46.9217C141.725 46.9217 141.893 46.8891 142.051 46.8237C142.219 46.7491 142.364 46.6371 142.485 46.4877C142.616 46.3291 142.719 46.1237 142.793 45.8717C142.868 45.6197 142.905 45.3117 142.905 44.9477ZM148.385 48.2797H146.313V41.5597H147.923L148.161 42.3997C148.46 42.0917 148.796 41.8491 149.169 41.6717C149.542 41.4944 149.948 41.4057 150.387 41.4057C151.143 41.4057 151.722 41.6111 152.123 42.0217C152.524 42.4324 152.725 43.0344 152.725 43.8277V48.2797H150.653V44.0377C150.653 43.7111 150.574 43.4544 150.415 43.2677C150.266 43.0717 150.042 42.9737 149.743 42.9737C149.519 42.9737 149.281 43.0391 149.029 43.1697C148.786 43.3004 148.572 43.4731 148.385 43.6877V48.2797ZM160.414 45.5217H156.074V45.5777C156.074 46.0444 156.256 46.3851 156.62 46.5997C156.984 46.8144 157.441 46.9217 157.992 46.9217C158.375 46.9217 158.711 46.8844 159 46.8097C159.289 46.7351 159.532 46.6464 159.728 46.5437L160.106 47.9717C159.854 48.0931 159.532 48.2004 159.14 48.2937C158.757 48.3871 158.286 48.4337 157.726 48.4337C157.222 48.4337 156.741 48.3684 156.284 48.2377C155.836 48.0977 155.439 47.8877 155.094 47.6077C154.758 47.3277 154.487 46.9731 154.282 46.5437C154.086 46.1144 153.988 45.6011 153.988 45.0037C153.988 44.4717 154.067 43.9864 154.226 43.5477C154.394 43.0997 154.627 42.7171 154.926 42.3997C155.225 42.0824 155.579 41.8397 155.99 41.6717C156.41 41.4944 156.872 41.4057 157.376 41.4057C158.3 41.4057 159.037 41.6857 159.588 42.2457C160.139 42.8057 160.414 43.6037 160.414 44.6397V45.5217ZM158.3 44.1077C158.3 43.9491 158.281 43.7951 158.244 43.6457C158.207 43.4964 158.146 43.3657 158.062 43.2537C157.987 43.1324 157.885 43.0391 157.754 42.9737C157.633 42.8991 157.483 42.8617 157.306 42.8617C156.979 42.8617 156.709 42.9784 156.494 43.2117C156.279 43.4357 156.153 43.7437 156.116 44.1357L158.3 44.1077ZM160.843 41.5597H163.111L164.217 44.5557L164.665 46.1937H164.721L165.141 44.5277L166.107 41.5597H168.221L165.799 48.4057C165.668 48.7884 165.514 49.1617 165.337 49.5257C165.16 49.8897 164.94 50.2304 164.679 50.5477C164.427 50.8651 164.119 51.1544 163.755 51.4157C163.391 51.6771 162.952 51.8917 162.439 52.0597L161.585 50.4497C162.136 50.2537 162.588 49.9737 162.943 49.6097C163.307 49.2457 163.55 48.8257 163.671 48.3497L163.699 48.2377L160.843 41.5597Z" fill="white"/>
</svg>
